<svg width="40" height="40" viewBox="0 0 40 40" fill="none" xmlns="http://www.w3.org/2000/svg">
<path d="M14 9C13.847 9.16985 13.6939 9.33971 12.4864 10.3784C11.2788 11.4171 9.02145 13.3194 7.74377 14.4183C6.46609 15.5172 6.23652 15.755 6 16" stroke="#E5E7EB" stroke-width="3.2" stroke-linecap="round"/>
<path d="M23 9C22.8405 9.10879 22.6809 9.21758 19.8735 11.6942C17.0661 14.1709 11.6156 19.0121 6 24" stroke="#E5E7EB" stroke-width="3.2" stroke-linecap="round"/>
<path d="M32 10C31.2195 10.7309 30.439 11.4617 29.6007 12.1915C28.7624 12.9213 27.8901 13.6278 26.4306 14.9175C24.9711 16.2072 22.951 18.0588 21.7151 19.171C20.105 20.62 19.5033 21.1454 19.1677 21.5142C18.7372 21.9871 18.0911 22.6197 16.9457 23.5784C16.3731 24.0576 15.4393 24.9201 14.9085 25.4203C14.3777 25.9205 14.2859 26.0423 13.5499 26.7872C12.8139 27.5321 11.4365 28.8964 10.5203 29.7575C9.19096 30.9354 8.65043 31.3836 8.43061 31.6047C8.32557 31.704 8.23374 31.777 8 32" stroke="#E5E7EB" stroke-width="3.2" stroke-linecap="round"/>
<path d="M33 18C32.505 18.33 31.575 18.9714 30.2485 19.9804C29.5775 20.4908 28.9895 21.1071 28.5078 21.5404C28.0261 21.9736 27.6886 22.2329 26.7723 22.9911C25.8559 23.7493 24.3709 24.9986 22.8297 26.4082C21.2884 27.8179 19.7359 29.35 18 31" stroke="#E5E7EB" stroke-width="3.2" stroke-linecap="round"/>
<path d="M34 25C33.8634 25.0752 33.7269 25.1504 32.5869 25.941C31.4469 26.7316 29.3076 28.2354 28.1486 29.0603C26.9897 29.8851 26.8759 29.9853 26.6921 30.1873C26.5083 30.3894 26.2579 30.6901 26 31" stroke="#E5E7EB" stroke-width="3.2" stroke-linecap="round"/>
</svg>
